<svg xmlns="http://www.w3.org/2000/svg" width="24" height="24" fill="none" viewBox="0 0 24 24"><path fill="currentColor" fill-rule="evenodd" d="m15.949 20.198.004.001-.4 1.492a1 1 0 0 1-.965.741H4.236a1 1 0 0 1-.966-1.258l1.092-4.08zm1.552-5.795.005.001-1.023 3.817-.004.02-.008.026h-.005l-2.646-.71.266-.993a1 1 0 0 0-1.932-.517l-.267.992-2.414-.647.266-.993a1 1 0 0 0-1.932-.517l-.267.993-2.66-.713.007-.027 1.027-3.837zM6.958 7.406a2 2 0 0 1 2.125-1.472l8.365 2.243a2 2 0 0 1 1.101 2.335l-.525 1.96-.005-.002-2.647-.71.267-.992a1 1 0 0 0-1.933-.517l-.266.992-2.414-.647.266-.992a1 1 0 0 0-1.932-.517l-.267.992-2.661-.713zm3.485-5.276A2 2 0 0 1 12.892.716l3.863 1.035A2 2 0 0 1 18.17 4.2l-.526 1.959-2.898-.777.267-.993a1 1 0 1 0-1.932-.517l-.266.992-2.898-.776z" clip-rule="evenodd"/></svg>
