<svg xmlns="http://www.w3.org/2000/svg" width="24" height="24" fill="none" viewBox="0 0 24 24"><path fill="currentColor" fill-rule="evenodd" d="M2.408 10.428c5.297-5.297 13.887-5.297 19.184 0l.39.39a4 4 0 0 1 1.171 2.828v2.096a2 2 0 0 1-2.196 1.99l-4.028-.397a2 2 0 0 1-1.804-1.991v-2.257h-6.25v2.257a2 2 0 0 1-1.804 1.99l-4.028.398a2 2 0 0 1-2.196-1.99v-2.096a4 4 0 0 1 1.172-2.829zm17.77 1.414c-4.516-4.516-11.839-4.516-16.355 0l-.39.39a2 2 0 0 0-.586 1.414v2.096l4.028-.398v-2.258a2 2 0 0 1 2-2h6.25a2 2 0 0 1 2 2v2.258l4.03.398-.002-2.096c0-.53-.21-1.04-.586-1.415z" clip-rule="evenodd"/></svg>
